<svg id="Layer_1" data-name="Layer 1" xmlns="http://www.w3.org/2000/svg" viewBox="0 0 165.57 50.51"><defs><style>.cls-1{fill:#fff;}.cls-2{fill:#f29104;}</style></defs><path class="cls-1" d="M78.31,43.57h-2.6l-2.64-7.16H61.76l-2.64,7.16h-2.6l9.48-25h3ZM67.44,21.09l-4.8,13h9.55Z"/><path class="cls-1" d="M79.5,43.57v-27L82,16.09V43.57Z"/><path class="cls-1" d="M85,43.57v-27l2.48-.52V43.57Z"/><path class="cls-1" d="M114.39,44.09c-7,0-12.27-5.24-12.27-13s5.16-13.08,12.31-13.08c7,0,12.28,5.2,12.28,12.92S121.55,44.09,114.39,44.09Zm0-23.76c-5.6,0-9.63,4.32-9.63,10.64s4.11,10.84,9.79,10.84,9.6-4.36,9.6-10.68S120,20.33,114.35,20.33Z"/><path class="cls-1" d="M141.31,43.57V31.73c0-3.2-1.28-4.64-4-4.64a8.24,8.24,0,0,0-5.56,2.6V43.57h-2.48V25.25l2.48-.52v3a9.49,9.49,0,0,1,6.24-3c3.68,0,5.84,2.28,5.84,6.28V43.57Z"/><path class="cls-1" d="M148.26,34.69c.08,4.12,2.56,7.08,6.4,7.08A9.9,9.9,0,0,0,160,40.25l.48,2.28a11.26,11.26,0,0,1-5.88,1.56c-5.28,0-8.84-4-8.84-9.52,0-5.76,3.68-9.84,8.64-9.84,4,0,6.68,2.64,6.68,6.76a11.2,11.2,0,0,1-.4,2.92l-12.4.08Zm10.32-2.2a5.36,5.36,0,0,0,0-.8c0-2.8-1.52-4.72-4.4-4.72-3.28,0-5.4,2.52-5.8,5.56Z"/><path class="cls-2" d="M91.28,32.44a1.18,1.18,0,1,1,1.08-1.18A1.06,1.06,0,0,1,91.28,32.44Zm-.81,11.13V34.41l1.63-.26v9.42Z"/><path class="cls-2" d="M99.63,43.57V37.83c0-1.57-.6-2.11-1.89-2.11a3.63,3.63,0,0,0-2.39,1v6.85H93.71V34.41l1.64-.26v1.37a4.35,4.35,0,0,1,3-1.37c1.86,0,3,1.17,3,3.15v6.27Z"/><path class="cls-2" d="M42.54,4.2a.49.49,0,0,0-.66-.14c-4.28,2.63-4.31,8.46-4.31,8.7V24.58h1V12.76s0-5.12,3.44-7.6a19.47,19.47,0,0,1,1.61,8.57V24.58h1V13.73C44.54,7.28,42.62,4.32,42.54,4.2Z"/><path class="cls-2" d="M37.57,24.34l-.13-.24-.27-.48L34,17.86a.46.46,0,0,0-.29-.22.45.45,0,0,0-.36,0l-1.1.61-.32-.57a3.34,3.34,0,0,0,.15-4.2,2.53,2.53,0,0,0-3.1-.78.48.48,0,0,0-.25.35.49.49,0,0,0,.14.41,1.21,1.21,0,0,1,.39,1.38.8.8,0,0,1-.88.41c-1.17-.15-2.73-1.91-3.62-6.37a2,2,0,0,0-1.61-1.65,2.67,2.67,0,0,0-2.64.91,2.14,2.14,0,0,0,0,2.46l7.21,13,.27.48.27.48h1.1L29,24.1l-.27-.48L21.29,10.16a1.26,1.26,0,0,1,0-1.42,1.66,1.66,0,0,1,1.3-.58,1.47,1.47,0,0,1,.36,0,1.09,1.09,0,0,1,.88.9c1.21,6.07,3.5,7,4.43,7.14a1.79,1.79,0,0,0,1.87-.94,2,2,0,0,0-.1-1.87,1.75,1.75,0,0,1,1.31.69c.56.68.77,1.9-.34,3.24a.47.47,0,0,0-.05.54l.71,1.27a.49.49,0,0,0,.28.23.48.48,0,0,0,.37,0l1.1-.61,2.71,4.87.26.48.27.48H37.7Z"/><path class="cls-2" d="M58.9,14.56l-.92-.7a.5.5,0,0,0-.36-.09.47.47,0,0,0-.31.18l-.37.5a4.28,4.28,0,0,0-4.65.65.5.5,0,0,0-.15.37.52.52,0,0,0,.19.36l1.93,1.46-2.71,3.58c-.86,1.14-1.66,1.62-2.18,1.31a1.3,1.3,0,0,1-.58-.94,3.08,3.08,0,0,1,1.14-2.4.47.47,0,0,0,0-.6.48.48,0,0,0-.56-.19,8.71,8.71,0,0,0-4.88,5.43,1.21,1.21,0,0,0,0,.14c-.06.18-.11.34-.16.48s-.1.35-.13.48h1q.06-.21.15-.48l.17-.48A8.82,8.82,0,0,1,48,20a2.84,2.84,0,0,0-.19,1.42,2.29,2.29,0,0,0,1,1.65c.59.33,1.8.57,3.42-1.57l3-4a.48.48,0,0,0-.1-.67l-1.79-1.36a3.3,3.3,0,0,1,3.41,0,.48.48,0,0,0,.62-.13l.32-.43.34.25-.06,1.7-7.29,9.62-.32.43-.35.44a3.77,3.77,0,0,1,.18.57,3.73,3.73,0,0,1,.09.67l.42-.55.38-.5,7.75-10.22a.51.51,0,0,0,.09-.27l.07-2.1A.46.46,0,0,0,58.9,14.56Z"/><path class="cls-2" d="M29.12,33.18l-.05,0v0h-.48v11.4l-1,1h-.23l-1-1V33.18h-1V44.77a.48.48,0,0,0,.14.34l1.26,1.27a.48.48,0,0,0,.34.14h.63a.48.48,0,0,0,.34-.14l1.26-1.27a.49.49,0,0,0,.15-.34V33.18Z"/><path class="cls-2" d="M27.48,45.1a.48.48,0,0,1-.48-.48V41.53a.49.49,0,0,1,1,0v3.09A.48.48,0,0,1,27.48,45.1Z"/><path class="cls-2" d="M39.23,38.49l-5.31-5.31H32.56l1,1,5,5c2.61,2.63,3.39,4.58,3.6,5.69L30.48,33.18H29.12l13.19,13.2a.48.48,0,0,0,.34.14l.12,0a.46.46,0,0,0,.34-.33C43.15,46.05,43.9,43.16,39.23,38.49Z"/><path class="cls-2" d="M23.55,33.18l-8.89,8.89s-4.24,4.19-9.07,3.38c.38-1.15,1.69-4.36,5.67-8.34l3.93-3.93h-.66a6,6,0,0,1-.61-.07l-3.34,3.34c-5.19,5.19-6,9.12-6.06,9.28a.48.48,0,0,0,.36.56,8.43,8.43,0,0,0,2,.24c4.64,0,8.27-3.59,8.44-3.77l9.57-9.57Z"/><path class="cls-2" d="M21.57,33.18a.45.45,0,0,1-.13.41l-7.29,7.28a.45.45,0,0,1-.34.14.48.48,0,0,1-.34-.81l6-6.06,1-1Z"/><path class="cls-2" d="M51.17,27.55A5.22,5.22,0,0,0,51,27a4.46,4.46,0,0,0-.22-.5,5.26,5.26,0,0,0-4.69-2.87H14.78a5.26,5.26,0,0,0-1.64,10.26,4.61,4.61,0,0,0,.53.15,4,4,0,0,0,.59.08,4.41,4.41,0,0,0,.52,0h31.3a5.25,5.25,0,0,0,5.26-5.26A4.85,4.85,0,0,0,51.17,27.55Zm-5.09,5.63H14.53a6,6,0,0,1-.61-.07,4.3,4.3,0,0,1,.86-8.52h31.3a4.3,4.3,0,0,1,4,2.78,3.77,3.77,0,0,1,.18.57,3.73,3.73,0,0,1,.09.67,2.53,2.53,0,0,1,0,.28A4.31,4.31,0,0,1,46.08,33.18Z"/><path class="cls-2" d="M40,22a.47.47,0,0,1-.48-.48V12.83a.48.48,0,0,1,.48-.48.49.49,0,0,1,.48.48v8.73A.48.48,0,0,1,40,22Z"/></svg>